<svg xmlns="http://www.w3.org/2000/svg" viewBox="0 0 117.65 117.65">
  <defs>
    <style>.cls-1{fill:#faa81e;}.cls-1,.cls-2,.cls-3{fill-rule:evenodd;}.cls-2{fill:#997336;}.cls-3{fill:#392f17;}
    </style>
  </defs>
  <title>logo</title>
  <g id="Layer_2">
    <g id="OBJECTS">
      <path class="cls-1"
            d="M4.4,48.16,29.63,22.93V57.76c0,.45,0,.91,0,1.37A29.2,29.2,0,1,0,45.05,33.34V7.51L48.16,4.4a15.12,15.12,0,0,1,21.33,0l43.77,43.76a15.14,15.14,0,0,1,0,21.33L69.49,113.25a15.12,15.12,0,0,1-21.33,0L4.4,69.49a15.12,15.12,0,0,1,0-21.33Zm54.43-2.8A13.77,13.77,0,1,0,72.6,59.13,13.77,13.77,0,0,0,58.83,45.36Z"/>
      <path class="cls-2"
            d="M45.05,7.51,48.16,4.4a15.12,15.12,0,0,1,21.33,0l43.77,43.76a15.14,15.14,0,0,1,0,21.33L86.31,96.43c-40.84,6.81-53.42-23.81-53.42-23.81h0A29.22,29.22,0,1,0,45.05,33.34V7.51ZM58.83,45.36A13.77,13.77,0,1,0,72.6,59.13,13.77,13.77,0,0,0,58.83,45.36Z"/>
      <path class="cls-3"
            d="M45.05,7.51,48.16,4.4a15.12,15.12,0,0,1,21.33,0L91.14,26.05c4,9.58,5.54,20.62,1.63,32.52C80.2,96.79,52.82,87.74,52.82,87.74h0a29.74,29.74,0,0,0,6,.62,29.23,29.23,0,1,0-13.78-55V7.51ZM58.83,45.36A13.77,13.77,0,1,0,72.6,59.13,13.77,13.77,0,0,0,58.83,45.36Z"/>
    </g>
  </g>
</svg>
